<?xml version="1.0" encoding="utf-8"?>
<!-- Generator: Adobe Adobe Illustrator 24.2.0, SVG Export Plug-In . SVG Version: 6.00 Build 0)  -->
<svg version="1.1" id="Ebene_1" xmlns="http://www.w3.org/2000/svg"
	xmlns:xlink="http://www.w3.org/1999/xlink" x="0px" y="0px"
	width="309px" height="213px" viewBox="0 0 309 213" style="enable-background:new 0 0 309 213;"
	xml:space="preserve">
<style type="text/css">
	.st0{fill:#CEC5B9;}
	.st1{fill:#FFFFFF;}
	.st2{fill:#E9DAC6;}
	.st3{fill:#F4EBE7;stroke:#000000;stroke-miterlimit:10;}
	.st4{fill:#4E3428;}
	.st5{fill:none;stroke:#4E3428;stroke-width:5;stroke-miterlimit:10;}
	.st6{fill:#AE9797;}
	.st7{fill:#866A51;}
	.st8{fill:#524030;}
	.st9{fill:none;stroke:#E9DAC6;stroke-miterlimit:10;}
	.st10{fill:#675E5A;}
	.st11{fill:#8A766D;}
	.st12{fill:none;stroke:#675E5A;stroke-miterlimit:10;}
</style>
<g>
	<path class="st1" d="M193.12,25.37v90h-4.92V69.41h-66.24v45.96h-4.92v-90h4.92v39.36h66.24V25.37H193.12z"/>
</g>
<g>
	<path class="st1" d="M183.6,115.36l-52.08-46.8v46.8h-4.92v-90h4.92v41.04l50.52-41.04h6.6l-51.6,42l53.28,48H183.6z"/>
</g>
<g>
	<path class="st1" d="M31.27,199.88l-19.73-18.62v18.62H8.61v-36h2.93v16.32l19.11-16.32h3.89l-19.58,16.75l20.26,19.25H31.27z"/>
	<path class="st1" d="M37.65,184.62v-20.74h2.93v20.83c0,7.97,4.66,13.06,12.34,13.06c7.63,0,12.29-5.09,12.29-13.06v-20.83h2.93
		v20.74c0,9.94-5.95,15.94-15.22,15.94C43.7,200.55,37.65,194.55,37.65,184.62z M46.63,156.39c0-1.2,0.82-1.82,1.92-1.82
		c1.15,0,1.92,0.62,1.92,1.82c0,1.15-0.77,1.82-1.92,1.82C47.44,158.22,46.63,157.54,46.63,156.39z M55.41,156.39
		c0-1.2,0.82-1.82,1.92-1.82c1.2,0,1.92,0.62,1.92,1.82c0,1.15-0.72,1.82-1.92,1.82C56.23,158.22,55.41,157.54,55.41,156.39z"/>
	<path class="st1" d="M105.72,163.88v36h-2.93v-17.91H77.87v17.91h-2.93v-36h2.93v15.36h24.91v-15.36H105.72z"/>
	<path class="st1" d="M140.04,189.42c0,6.58-5.14,11.14-16.37,11.14c-3.84,0-8.59-0.67-10.56-1.39v-35.28h12.72
		c7.49,0,10.9,3.6,10.9,8.69c0,3.41-2.06,6.43-5.04,7.58C136.44,181.11,140.04,184.57,140.04,189.42z M125.78,166.62h-9.79v12.72
		h10.9c4.42,0,6.91-2.88,6.91-6.43C133.79,169.4,131.63,166.62,125.78,166.62z M137.11,189.37c0-4.13-3.46-7.49-9.46-7.49h-11.67
		v15.03c1.68,0.58,5.14,0.91,7.92,0.91C133.6,197.82,137.11,194.07,137.11,189.37z"/>
	<path class="st1" d="M166.34,188.79h-16.27l-4.51,11.09h-3.31l15.6-36.48h0.72l15.6,36.48h-3.31L166.34,188.79z M158.18,169.02
		l-7.06,17.19h14.11L158.18,169.02z"/>
	<path class="st1" d="M201.96,198.83c-2.26,1.2-4.99,1.73-7.82,1.73c-10.61,0-18.82-8.16-18.82-18.72
		c0-10.46,8.26-18.48,18.87-18.48c2.83,0,5.52,0.48,7.78,1.63v2.83c-2.26-1.15-4.85-1.73-7.78-1.73c-8.98,0-15.89,6.82-15.89,15.75
		c0,8.98,6.91,15.89,15.89,15.89c2.93,0,5.52-0.53,7.78-1.73V198.83z"/>
	<path class="st1" d="M238.2,163.88v36h-2.93v-17.91h-24.91v17.91h-2.93v-36h2.93v15.36h24.91v-15.36H238.2z"/>
	<path class="st1" d="M268.39,197.15v2.74h-22.8v-36h22.18v2.74h-19.35v12.58h18.29v2.74h-18.29v15.22H268.39z"/>
	<path class="st1" d="M298.44,199.88l-8.78-12.96c-1.63,0.29-3.46,0.43-5.42,0.43c-3.07,0-5.38-0.29-7.25-0.77v13.3h-2.93v-36h13.01
		c9.7,0,14.21,4.27,14.21,11.09c0,5.71-3.12,9.5-8.79,11.28l9.26,13.63H298.44z M284.23,184.71c9.31,0,13.97-3.46,13.97-9.7
		c0-4.99-2.93-8.45-11.38-8.45h-9.84v17.43C278.85,184.43,281.2,184.71,284.23,184.71z"/>
</g>
</svg>